<?xml version="1.0" encoding="utf-8"?>
<!-- Generator: Adobe Illustrator 19.2.1, SVG Export Plug-In . SVG Version: 6.00 Build 0)  -->
<svg version="1.1" id="Layer_1" xmlns="http://www.w3.org/2000/svg" xmlns:xlink="http://www.w3.org/1999/xlink" x="0px" y="0px"
	 viewBox="0 0 246 129" style="enable-background:new 0 0 246 129;" xml:space="preserve">
<style type="text/css">
	.st0{enable-background:new    ;}
	.st1{fill:#FFFFFF;}
	.st2{fill:none;stroke:#FFFFFF;stroke-width:4;stroke-linecap:round;stroke-linejoin:round;}
	.st3{fill:none;stroke:#FFFFFF;stroke-width:2;stroke-linecap:round;stroke-linejoin:round;}
</style>
<title>Group 4</title>
<desc>Created with Sketch.</desc>
<g id="Page-1">
	<g id="Group-4" transform="translate(2.000000, 0.000000)">
		<g class="st0">
			<path class="st1" d="M68.5,42.2c-3.6,0-6.3-0.9-8-2.8c-1.7-1.8-2.5-4.3-2.5-7.3c0-3,0.5-5.8,1.6-8.3c1-2.5,2.6-4.5,4.6-6.1
				c2.1-1.6,4.3-2.4,6.7-2.4c2.4,0,4.3,0.6,5.6,1.7c1.4,1.2,2,2.7,2,4.7s-0.6,3.6-1.8,4.8c-1.2,1.3-2.6,1.9-4.2,1.9
				c-1.6,0-2.9-0.4-3.7-1.1c-0.9-0.7-1.3-1.5-1.3-2.3s0.3-1.4,1-1.9c0.6-0.5,1.6-0.7,2.8-0.7c-0.3,0.3-0.5,0.7-0.5,1.2
				c0,0.5,0.2,0.9,0.5,1.3c0.3,0.4,0.8,0.6,1.4,0.6c0.6,0,1.3-0.3,1.9-1c0.6-0.7,0.9-1.5,0.9-2.6c0-1.1-0.3-2-1-2.6
				c-0.7-0.7-1.6-1-2.8-1c-1.6,0-3,0.6-4.3,1.9s-2.3,2.9-3,4.9c-0.7,2-1,4.1-1,6.3c0,1.9,0.4,3.6,1.2,5c0.4,0.7,1,1.3,1.9,1.8
				c0.8,0.4,1.8,0.7,2.9,0.7c1.9,0,3.8-0.6,5.5-1.8c1.8-1.2,3.3-2.8,4.5-4.7l1.2,2.1c-1.4,2.2-3.1,4.1-5.2,5.5
				C73.3,41.5,71,42.2,68.5,42.2z"/>
			<path class="st1" d="M92.9,42.2c-2.1,0-3.6-0.7-4.3-2.2c-1.2,1.5-2.8,2.3-4.7,2.3c-1.9,0-3.5-0.6-4.8-1.9c-1.3-1.3-1.9-3-1.9-5.1
				c0-3.1,0.9-5.5,2.7-7.3c1.8-1.8,4.1-2.7,6.8-2.7c0.1,0,0.1,0,0.2,0c1.2,0,2.2,0.2,3.2,0.6c0.6-0.4,1.4-0.6,2.3-0.6
				c0.9,0,1.5,0.1,1.9,0.3c-0.2,1.7-0.4,3.4-0.7,5.1c-0.2,1.7-0.4,2.9-0.5,3.6c-0.2,1.6-0.3,2.7-0.3,3.4c0,0.9,0.4,1.4,1.1,1.4
				c0.6,0,1.2-0.4,1.9-1.2c0.7-0.8,1.2-2,1.7-3.7c0.7,0.6,1.1,1.3,1.4,2c-0.7,2.2-1.6,3.8-2.7,4.7C95.2,41.7,94.1,42.2,92.9,42.2z
				 M87.3,27.9c-1.5,0-2.7,0.6-3.6,1.7s-1.4,2.8-1.6,5.1c0,0.2,0,0.4,0,0.6c0,1.1,0.3,2.1,0.8,2.7c0.5,0.7,1.3,1,2.1,1
				c1.5,0,2.6-1,3.3-3.1l0.8-7.6C88.6,28,87.9,27.9,87.3,27.9z"/>
			<path class="st1" d="M103.6,17.6c0,0.1-0.3,2.6-0.9,7.5h5.1v2.7h-5.5l-0.1,0.9c2.7,2.3,4.1,4.8,4.1,7.5c0,2.1-0.5,3.7-1.6,4.6
				c-1.1,0.9-2.4,1.4-3.9,1.4c-1.5,0-2.6-0.4-3.3-1.2c-0.7-0.8-1-1.8-1-2.9c0-0.3,0-0.5,0.1-0.8l1.1-9.3l-0.1-0.1h-2.8
				c0-0.2,0-0.6,0-1.1c0-0.5,0.1-1,0.3-1.6h3l1.1-9.5c0.5-0.2,1.1-0.3,2-0.3C102.7,15.4,103.6,16.1,103.6,17.6z M104,36.2
				c0-1.6-0.7-3.2-2.1-4.8c-0.4,3.5-0.6,5.5-0.6,6c0,1,0.3,1.6,1,1.6c0.5,0,0.9-0.2,1.2-0.7S104,37.2,104,36.2z"/>
			<path class="st1" d="M117.9,30.1c0-1.5-0.7-2.3-2-2.3c-1,0-1.9,0.6-2.7,1.7c-0.8,1.2-1.3,2.7-1.3,4.3c0,1.7,0.4,2.9,1.1,3.8
				c0.7,0.9,1.7,1.3,3,1.3c1.5,0,3.2-0.6,4.9-1.9s3.1-2.8,4.1-4.7c0.5,0.4,0.9,1,1.4,1.9c-0.7,1.4-1.9,2.9-3.8,4.5
				c-1,0.9-2.1,1.6-3.6,2.2c-1.5,0.7-3.1,1-4.6,1c-2.1,0-3.8-0.7-5.3-2.1s-2.2-3.3-2.2-5.6c0-2.8,0.9-5,2.8-6.8
				c1.9-1.7,4-2.6,6.3-2.6c1.8,0,3.2,0.4,4.3,1.1c1,0.7,1.6,1.7,1.6,2.9c0,0.8-0.3,1.5-0.8,2.1c-1,1-2.3,1.5-3.7,1.5
				C117.7,31.7,117.9,30.8,117.9,30.1z"/>
			<path class="st1" d="M132,38l0.8-7.7c0-0.6-0.2-1.2-0.5-1.6c-0.3-0.4-0.9-0.6-1.6-0.6c-0.7,0-1.3,0.3-1.8,0.9
				c-0.5,0.6-0.9,1.3-1.1,2.3c-0.2,1.3-0.4,3.3-0.7,5.8c-0.3,2.6-0.5,4.2-0.6,5h-4.7c1.7-14.3,2.7-23.1,3-26.4
				c0.5-0.2,1.2-0.3,2-0.3c1.8,0,2.7,0.5,2.7,1.6v0.2c-0.4,3.7-0.8,6.9-1.3,9.7c1.2-1.1,2.6-1.7,4.2-1.7c1.6,0,2.8,0.4,3.7,1.2
				s1.4,1.8,1.4,3c0,0.3-0.1,0.9-0.2,1.8c-0.5,3.5-0.8,5.6-0.8,6.2c0,1.1,0.4,1.6,1.1,1.6c0.6,0,1.3-0.4,1.9-1.2
				c0.7-0.8,1.2-2,1.7-3.7c0.8,0.8,1.3,1.5,1.4,2c-1.2,4.1-3.4,6.1-6.4,6.1c-1.4,0-2.5-0.4-3.2-1.3C132.4,39.9,132,39,132,38z"/>
			<path class="st1" d="M153.8,17.6c0,0.1-0.3,2.6-0.9,7.5h5.1v2.7h-5.5l-0.1,0.9c2.7,2.3,4.1,4.8,4.1,7.5c0,2.1-0.5,3.7-1.6,4.6
				c-1.1,0.9-2.4,1.4-3.9,1.4s-2.6-0.4-3.3-1.2c-0.7-0.8-1-1.8-1-2.9c0-0.3,0-0.5,0.1-0.8l1.1-9.3l-0.1-0.1h-2.8c0-0.2,0-0.6,0-1.1
				c0-0.5,0.1-1,0.3-1.6h3l1.1-9.5c0.5-0.2,1.1-0.3,2-0.3C152.9,15.4,153.8,16.1,153.8,17.6z M154.1,36.2c0-1.6-0.7-3.2-2.1-4.8
				c-0.4,3.5-0.6,5.5-0.6,6c0,1,0.3,1.6,1,1.6c0.5,0,0.9-0.2,1.2-0.7C154,37.9,154.1,37.2,154.1,36.2z"/>
			<path class="st1" d="M166.6,38l0.8-7.7c0-0.6-0.2-1.2-0.5-1.6c-0.3-0.4-0.9-0.6-1.6-0.6c-0.7,0-1.3,0.3-1.8,0.9
				c-0.5,0.6-0.9,1.3-1.1,2.3c-0.2,1.3-0.4,3.3-0.7,5.8c-0.3,2.6-0.5,4.2-0.6,5h-4.7c1.7-14.3,2.7-23.1,3-26.4
				c0.5-0.2,1.2-0.3,2-0.3c1.8,0,2.7,0.5,2.7,1.6v0.2c-0.4,3.7-0.8,6.9-1.3,9.7c1.2-1.1,2.6-1.7,4.2-1.7c1.6,0,2.8,0.4,3.7,1.2
				s1.4,1.8,1.4,3c0,0.3-0.1,0.9-0.2,1.8c-0.5,3.5-0.8,5.6-0.8,6.2c0,1.1,0.4,1.6,1.1,1.6c0.6,0,1.3-0.4,1.9-1.2
				c0.7-0.8,1.2-2,1.7-3.7c0.8,0.8,1.3,1.5,1.4,2c-1.2,4.1-3.4,6.1-6.4,6.1c-1.4,0-2.5-0.4-3.2-1.3C167,39.9,166.6,39,166.6,38z"/>
			<path class="st1" d="M183.4,32.4c0.7-0.9,1.1-1.7,1.1-2.5c0-0.8-0.2-1.4-0.6-1.6s-0.9-0.4-1.4-0.4c-1.1,0-2.1,0.6-2.9,1.8
				c-0.8,1.2-1.2,2.7-1.2,4.4c0,1.7,0.4,3,1.2,3.8c0.8,0.8,1.8,1.2,3,1.2c1.8,0,3.4-0.6,5-1.8c1.6-1.2,2.9-2.8,3.9-4.8
				c0.5,0.5,1,1.1,1.4,1.8c-0.8,1.8-2.1,3.5-4.1,5.1c-1,0.8-2.1,1.5-3.5,2c-1.3,0.5-2.7,0.8-4.1,0.8c-2.3,0-4.2-0.7-5.5-2.1
				c-1.4-1.5-2.2-3.5-2.2-5.9s0.9-4.5,2.7-6.3c1.8-1.8,4-2.7,6.5-2.7c1.8,0,3.3,0.4,4.4,1.2c1.1,0.8,1.7,1.8,1.7,3.2
				c0,1.8-0.7,3.3-2.2,4.4s-3.4,1.9-5.9,2.3l-0.5-2.1C181.6,33.9,182.7,33.3,183.4,32.4z"/>
		</g>
		<g class="st0">
			<path class="st1" d="M40.3,80.9c-2.8,2-4.2,4.9-4.2,8.8c0,2.4,0.9,4.8,2.6,6.9c1.8,2.2,4.7,3.2,8.9,3.2c4.2,0,8.1-1.4,11.9-4.2
				c3.7-2.8,6.6-5.9,8.5-9.3l2.4,4.4c-6.2,10.5-14.8,15.8-25.8,15.8c-5.5,0-10.1-1.5-13.9-4.4c-3.8-3-5.7-6.4-5.7-10.4
				c0-7,3.1-12,9.3-15.1c-2.1-2.5-3.1-5.5-3.1-8.9c0-4.5,1.9-8.3,5.8-11.5c3.9-3.2,8.3-4.8,13.4-4.8c5.1,0,9,1.3,11.8,3.9
				c2.8,2.6,4.1,6,4.1,10.2h-6.8c0-2.6-0.6-4.5-2.1-5.9c-1.4-1.3-3.4-2-5.9-2s-4.8,0.9-6.8,2.7c-2.3,2-3.4,4.3-3.4,6.9
				c0,2.6,0.7,4.9,2.2,6.8c4.8-0.6,8.4-0.3,10.9,0.9c1.5,0.7,2.3,1.9,2.3,3.4s-0.9,2.7-2.6,3.3c-1.8,0.6-3.9,0.9-6.3,0.9
				C45.4,82.5,42.9,82,40.3,80.9z"/>
			<path class="st1" d="M79,106l2.7-23.9c0-1.3-0.3-2.5-1-3.3c-0.6-0.9-1.8-1.3-3.4-1.3c-1.6,0-3,0.8-4,2.3c-1.1,1.6-1.7,3.2-2,4.9
				c-1.7,12-2.6,19.1-2.8,21.3h-9.6l4-33.8c2-0.5,3.6-0.8,4.6-0.8c3,0,4.7,1,5,3c2.4-2,4.9-3,7.7-3c5.6,0,9.1,1.7,10.7,5
				c2.4-3.4,5.7-5,10.1-5c3.2,0,5.8,0.8,7.6,2.5c1.9,1.7,2.8,3.7,2.8,6.2c0,0.7-0.1,2-0.4,3.8c-1.1,7.2-1.7,11.4-1.7,12.7
				c0,2.3,0.7,3.4,2.2,3.4c1.2,0,2.6-0.8,4-2.5c1.4-1.7,2.6-4.2,3.4-7.7c1.6,1.7,2.6,3.1,3,4.1c-2.5,8.4-6.9,12.5-13.2,12.5
				c-3,0-5.2-0.9-6.6-2.7c-1.4-1.8-2.2-3.7-2.2-5.8l1.7-15.9c0-1.3-0.3-2.4-1-3.2c-0.7-0.9-1.7-1.3-3.2-1.3c-1.5,0-2.7,0.6-3.9,1.7
				c-1.1,1.1-1.9,2.5-2.3,4.2c-1.4,12.2-2.4,19.8-2.8,22.7H79z"/>
			<path class="st1" d="M133.7,71.4c4.4,0,8.1,1.4,11.1,4.2c3,2.8,4.4,6.3,4.4,10.4c0,6.2-1.8,11.1-5.4,14.9
				c-3.6,3.7-8,5.6-13.1,5.6c-5.1,0-9.2-1.5-12.2-4.4c-3-2.9-4.5-6.6-4.5-10.9c0-6,1.8-10.8,5.5-14.4
				C123.2,73.2,128,71.4,133.7,71.4z M132.3,77.2c-2.3,0-4.2,1.3-5.7,3.9c-1.5,2.6-2.4,5.9-2.5,9.8c0,2.8,0.6,5.1,1.7,6.9
				c1.1,1.8,2.8,2.7,5.1,2.7c2.3,0,4.2-1.3,5.8-3.8c1.6-2.5,2.3-5.4,2.3-8.7c0-3.3-0.6-5.9-1.7-7.8
				C136.3,78.2,134.6,77.2,132.3,77.2z"/>
			<path class="st1" d="M152.2,128c-2.3,0-4.3-0.7-6-2.1c-1.8-1.4-2.6-3.9-2.6-7.3c0-6.9,4.2-13.1,12.5-18.5c0.3-2.9,1.3-11.5,3-26
				c1.4-1.8,3.7-2.7,6.8-2.7c1.7,0,2.9,0.2,3.5,0.5l-5.6,43.6c-0.5,4.2-1.6,7.3-3.5,9.4C158.4,127,155.7,128,152.2,128z
				 M148.9,120.9c0.5,0.7,1.2,1,2,1c1.5,0,2.5-1.6,3-4.8l1.5-11.5c-4.8,3.8-7.3,7.9-7.3,12.2C148.1,119.2,148.4,120.2,148.9,120.9z
				 M162.2,53c1.1-1.1,2.4-1.7,4-1.7s2.9,0.6,4.1,1.7c1.1,1.1,1.7,2.5,1.7,4.1s-0.6,2.9-1.7,4c-1.1,1.1-2.5,1.7-4.1,1.7
				s-2.9-0.6-4-1.7c-1.1-1.1-1.7-2.4-1.7-4S161.1,54.1,162.2,53z"/>
			<path class="st1" d="M176.1,72.1c1.3-0.5,2.7-0.7,4-0.7s2.5,0.2,3.5,0.5c-1.9,14.4-2.8,21.7-2.8,21.9c-0.2,1-0.4,1.8-0.4,2.4
				c0,0.6,0,1.2,0.1,1.7c0.2,1.2,1.1,1.9,2.6,1.9c1.6,0,3-1,4.3-3.1c1.3-2,2.3-4.4,3-6.9c0.3,0.2,0.9,0.8,1.6,1.7
				c0.7,1,1.2,1.7,1.3,2.2c-1,3.8-2.6,6.9-4.9,9.3c-2.3,2.4-5.1,3.5-8.3,3.5s-5.6-0.8-7.2-2.4c-1.6-1.6-2.3-3.6-2.3-6.1
				c0-0.5,0-1.1,0.1-1.7l2.6-22.2C173.8,73.2,174.7,72.6,176.1,72.1z M176.3,53c1.1-1.1,2.4-1.7,4-1.7s2.9,0.6,4.1,1.7
				c1.1,1.1,1.7,2.5,1.7,4.1s-0.6,2.9-1.7,4c-1.1,1.1-2.5,1.7-4.1,1.7s-2.9-0.6-4-1.7c-1.1-1.1-1.7-2.4-1.7-4S175.2,54.1,176.3,53z"
				/>
			<path class="st1" d="M215.8,84c3.8,2.8,5.7,6.1,5.7,9.9c0,3.8-1.5,6.8-4.5,9.1c-3,2.3-6.7,3.5-11.2,3.5c-2.9,0-5.4-0.7-7.3-2.2
				c-1.9-1.5-2.9-3.3-2.9-5.4s0.7-3.9,2.2-5.1c1.4-1.3,3.2-2.1,5.4-2.3c-1,1.4-1.5,2.8-1.5,4.1c0,1.3,0.5,2.4,1.4,3.2
				c0.9,0.8,2.1,1.2,3.5,1.2c1.4,0,2.5-0.5,3.5-1.5c0.9-1,1.4-2.2,1.4-3.6c0-2.2-1-4.2-3.1-5.9c-1.2-1-2.6-2-4-2.8
				c-1.4-0.9-2.2-1.4-2.3-1.4c-0.2-0.1-0.4-0.3-0.6-0.4c-0.9,1-2.1,2.4-3.7,4.1c-1.6,1.8-2.9,3.2-3.9,4.2c-2.7,2.9-4.2,5.4-4.5,7.3
				c-0.1,0.4-0.1,1.1-0.1,2.2c0,1.1,0.3,2.2,1,3.3c0.6,1.2,1.4,2,2.3,2.6c0.9,0.6,1.8,1,2.7,1.4c0.9,0.4,1.7,0.6,2.3,0.8
				c0.6,0.1,1,0.2,1,0.3c0,0.3-0.5,0.7-1.6,1.2c-2,0.7-4,1.1-6.2,1.1c-2.1,0-4.2-0.8-6.2-2.3c-2.7-2.1-4.1-4.9-4.1-8.4
				c0-2.2,0.6-4.3,1.7-6.4c2-3.7,6.6-8.9,13.8-15.4c-1.8-1.8-2.7-3.7-2.7-5.7c0-2,0.8-3.7,2.3-5.1c1.5-1.4,3.3-2.1,5.4-2.1
				c1.9,0,3.5,0.7,4.9,2.2c0.9,1,1.4,2.3,1.4,3.8c0,1.5-0.5,3.3-1.5,5.2C210.5,80.9,214,82.7,215.8,84z M200.2,75.8
				c1.2-1.2,1.7-2.1,1.7-2.6c0-1.2-0.5-1.8-1.6-1.9c-1.2,0-1.8,0.7-1.8,2C198.5,74.1,199.1,75,200.2,75.8z"/>
		</g>
		<path id="Line-Copy-2" class="st2" d="M0,120h241.6"/>
		<path id="Line-Copy-3" class="st3" d="M42,1h156"/>
	</g>
</g>
</svg>
