<svg xmlns="http://www.w3.org/2000/svg" width="48" height="48" viewBox="0 0 48 48">
  <path fill="#FFFFFF" fill-rule="evenodd" d="M48,27 L48,30 L41.9998125,30 C41.9998125,32.37 41.5137973,34.623 40.6812713,36.6975 L44.9939061,39.276 L43.4818588,41.988 L39.2547267,39.4605 C36.0791275,44.5695 30.4599519,48 24.00075,48 C17.5400481,48 11.9208725,44.5695 8.74527329,39.4605 L4.51814119,41.988 L3.00609394,39.276 L7.31872871,36.6975 C6.48470265,34.623 6.00018751,32.37 6.00018751,30 L0,30 L0,27 L6.29569674,27 C6.68120879,24.8505 7.43123223,22.8315 8.49476546,21.0045 L3.00759399,17.7255 L4.51964124,15.012 L10.2903216,18.462 C13.0624082,15.1725 16.9955311,12.996 21.4461702,12.348 L15.0139692,1.4865 L17.4875465,0 L24.00075,11.001 L30.5139536,0 L32.9875309,1.4865 L26.5868308,12.2955 C31.0269696,12.957 34.9405919,15.1755 37.7096784,18.462 L43.4818588,15.012 L44.9939061,17.7255 L39.5067346,21.0045 C40.5687678,22.8315 41.3202913,24.8505 41.7043033,27 L48,27 L48,27 Z M23.99925,15 C19.1060971,15 14.8054627,17.376 12.0663771,21 L35.9306228,21 C33.1930373,17.376 28.8909028,15 23.99925,15 L23.99925,15 Z M37.7336792,24 L10.2648208,24 C9.4592956,25.8405 8.99878121,27.8625 8.99878121,30 C8.99878121,38.283 15.7144911,45 23.99925,45 C32.2825088,45 38.9997187,38.283 38.9997187,30 C38.9997187,27.8625 38.5377043,25.8405 37.7336792,24 L37.7336792,24 Z"/>
</svg>
