<?xml version="1.0" encoding="UTF-8" standalone="no"?>
<svg width="26px" height="28px" viewBox="0 0 26 28" version="1.1" xmlns="http://www.w3.org/2000/svg" xmlns:xlink="http://www.w3.org/1999/xlink">
    <!-- Generator: Sketch 39.1 (31720) - http://www.bohemiancoding.com/sketch -->
    <title>tapsIcon</title>
    <desc>Created with Sketch.</desc>
    <defs></defs>
    <g id="Assets" stroke="none" stroke-width="1" fill="none" fill-rule="evenodd">
        <g id="tapsIcon" transform="translate(-3.000000, -2.000000)">
            <rect id="Rectangle-4" x="0" y="0" width="32" height="32"></rect>
            <path d="M13.010762,30 C12.9757855,30 12.9478044,29.9829994 12.9128279,29.9809993 C11.8565389,29.9859995 10.8012492,29.5889853 9.99679062,28.7839566 L4.20069184,22.9847495 C2.59976939,21.3816922 2.59976939,18.7865995 4.20069184,17.1855423 C5.80061497,15.5824851 8.39586817,15.5824851 9.99679062,17.1855423 L11.0121072,18.2005786 L11.0121072,13.9994286 L11.0121072,6.0011429 C11.0121072,3.79106397 12.8019026,2 15.0094167,2 C17.2169309,2 19.0067262,3.79106397 19.0067262,6.0011429 L19.0067262,13.7154184 L27.0013452,15.9995 C28.1046027,15.9995 29,16.895532 29,18.0005714 L29,28.0009286 C29,29.1059681 28.1046027,30 27.0013452,30 L13.010762,30 Z M26.0020179,18.0005714 L17.0080715,15.0004643 L17.0080715,6.0011429 C17.0080715,4.8951034 16.1126742,3.9990714 15.0094167,3.9990714 C13.9061593,3.9990714 13.010762,4.8951034 13.010762,6.0011429 L13.010762,14.9994643 L13.010762,17.9995714 L13.010762,23.1017536 L8.54776593,18.6345941 C7.7473047,17.8335655 6.45017776,17.8335655 5.65071586,18.6345941 C4.85125396,19.4356227 4.85025464,20.7346691 5.65071586,21.5346977 L11.4458153,27.3339048 C11.8775247,27.7659202 12.0000001,28.0009292 13.010762,28.0009286 L25.0026905,28.0009286 L26.0020179,28.0009286 C26.5536466,28.0009286 27.0013452,27.5539126 27.0013452,27.0008929 L27.0013452,18.9996071 C27.0013452,18.4465874 26.5536466,18.0005714 26.0020179,18.0005714 Z" id="Shape" fill="#58D1FF"></path>
        </g>
    </g>
</svg>