<?xml version="1.0" encoding="UTF-8" standalone="no"?>
<svg width="26px" height="30px" viewBox="0 0 26 30" version="1.1" xmlns="http://www.w3.org/2000/svg" xmlns:xlink="http://www.w3.org/1999/xlink">
    <!-- Generator: Sketch 39.1 (31720) - http://www.bohemiancoding.com/sketch -->
    <title>timeIcon</title>
    <desc>Created with Sketch.</desc>
    <defs></defs>
    <g id="Assets" stroke="none" stroke-width="1" fill="none" fill-rule="evenodd">
        <g id="timeIcon" transform="translate(-3.000000, -1.000000)">
            <rect id="Rectangle-4" x="0" y="0" width="32" height="32"></rect>
            <path d="M17,5.101 C23.704,5.621 29,11.163 29,18 C29,25.179 23.179,31 16,31 C8.82,31 3,25.179 3,18 C3,11.162 8.296,5.62 15,5.101 L15,3 L15,3 L12,3 C11.447,3 11,2.552 11,1.999 C11,1.446 11.448,1 12,1 L20,1 C20.552,1 21,1.446 21,1.999 C21,2.552 20.552,3 20,3 L17,3 L17,3 L17,5.101 L17,5.101 Z M16,6.999 C9.925,6.999 5,11.926 5,18 C5,24.075 9.925,29 16,29 C22.075,29 27,24.075 27,18 C27,11.926 22.075,6.999 16,6.999 L16,6.999 Z M18,22.999 L14,22.999 C13.447,22.999 13,22.552 13,22 L13,20 C13,19.448 13.447,19 14,19 L15,19 L15,12 C15,11.448 15.447,11 16,11 C16.552,11 17,11.448 17,12 L17,19 L18,19 C18.552,19 19,19.448 19,20 L19,22 C19,22.552 18.552,22.999 18,22.999 L18,22.999 Z" id="Shape" fill="#58D1FF"></path>
        </g>
    </g>
</svg>