<?xml version="1.0" encoding="UTF-8" standalone="no"?>
<svg width="48px" height="48px" viewBox="0 0 48 48" version="1.1" xmlns="http://www.w3.org/2000/svg" xmlns:xlink="http://www.w3.org/1999/xlink">
    <!-- Generator: Sketch 39.1 (31720) - http://www.bohemiancoding.com/sketch -->
    <title>watchIcon</title>
    <desc>Created with Sketch.</desc>
    <defs></defs>
    <g id="Assets" stroke="none" stroke-width="1" fill="none" fill-rule="evenodd">
        <g id="Artboard" transform="translate(-123.000000, -158.000000)" fill="#FFFFFF">
            <g id="watchIcon" transform="translate(123.000000, 158.000000)">
                <path d="M44,26.502 C44,37.272 35.27,46.002 24.5,46.002 C13.73,46.002 5,37.272 5,26.502 C5,16.247 12.944,7.932 23,7.152 L23,4.001 L18.5,4.001 C17.671,4.001 17,3.33 17,2.502 C17,1.674 17.671,1.002 18.5,1.002 L24.493,1.002 C24.495,1.002 24.497,1 24.5,1 C24.503,1 24.504,1.002 24.506,1.002 L30.5,1.002 C31.329,1.002 32,1.674 32,2.502 C32,3.33 31.329,4.001 30.5,4.001 L26,4.001 L26,7.152 C36.056,7.932 44,16.247 44,26.502 L44,26.502 Z M24.5,10.003 C15.387,10.003 8,17.39 8,26.502 C8,35.614 15.388,43.002 24.5,43.002 C33.612,43.002 41,35.614 41,26.502 C41,17.39 33.612,10.003 24.5,10.003 L24.5,10.003 Z M32,37.723 L32,34.002 L31.834,34.002 C33.783,32.096 35,29.443 35,26.502 C35,20.703 30.299,16.002 24.5,16.002 L24.5,13.003 C31.956,13.003 38,19.046 38,26.502 C38,31.182 35.616,35.301 32,37.723 L32,37.723 Z M26,26.502 L26,38.503 C26,39.331 25.328,40.002 24.5,40.002 C23.672,40.002 23,39.331 23,38.503 L23,26.502 C23,25.674 23.671,25.002 24.5,25.002 C25.329,25.002 26,25.674 26,26.502 L26,26.502 Z M24.5,40.003 L24.5,40.003 L24.508,40.002 C24.505,40.002 24.502,40.003 24.5,40.003 L24.5,40.003 Z"></path>
            </g>
        </g>
    </g>
</svg>