<?xml version="1.0" encoding="UTF-8"?>
<svg width="151px" height="53px" viewBox="0 0 151 53" version="1.1" xmlns="http://www.w3.org/2000/svg" xmlns:xlink="http://www.w3.org/1999/xlink">
    <!-- Generator: Sketch 48.2 (47327) - http://www.bohemiancoding.com/sketch -->
    <title>text</title>
    <desc>Created with Sketch.</desc>
    <defs></defs>
    <g id="Page-1" stroke="none" stroke-width="1" fill="none" fill-rule="evenodd">
        <g id="text" transform="translate(0.000000, -13.000000)">
            <path d="M16.5664598,23.5256363 L0.948739987,23.5256363 L0.948739987,13.8922764 L43.6420394,13.8922764 L43.6420394,23.5256363 L28.0243196,23.5256363 L28.0243196,65.9999957 L16.5664598,65.9999957 L16.5664598,23.5256363 Z M56.0486392,45.857516 L69.5499391,45.857516 L62.9817391,26.7367562 L62.8357791,26.7367562 L56.0486392,45.857516 Z M57.1433392,13.8922764 L68.8931191,13.8922764 L88.3787788,65.9999957 L76.483039,65.9999957 L72.542119,54.3961759 L53.0564593,54.3961759 L48.9695793,65.9999957 L37.4387395,65.9999957 L57.1433392,13.8922764 Z M104.361399,38.4135561 L113.264958,38.4135561 C114.578605,38.4135561 115.843579,38.3162504 117.059918,38.1216361 C118.276258,37.9270218 119.34662,37.5499622 120.271038,36.9904461 C121.195456,36.43093 121.937412,35.6403212 122.496928,34.6185961 C123.056444,33.596871 123.336198,32.2589178 123.336198,30.6046962 C123.336198,28.9504746 123.056444,27.6125213 122.496928,26.5907962 C121.937412,25.5690711 121.195456,24.7784624 120.271038,24.2189463 C119.34662,23.6594302 118.276258,23.2823706 117.059918,23.0877563 C115.843579,22.893142 114.578605,22.7958363 113.264958,22.7958363 L104.361399,22.7958363 L104.361399,38.4135561 Z M92.9035387,13.8922764 L116.403098,13.8922764 C119.662888,13.8922764 122.4361,14.3666417 124.722818,15.3153864 C127.009536,16.2641311 128.870508,17.5169419 130.305788,19.0738563 C131.741069,20.6307708 132.787105,22.4065997 133.443928,24.4013963 C134.100751,26.3961929 134.429158,28.4639388 134.429158,30.6046962 C134.429158,32.6968 134.100751,34.7523827 133.443928,36.7715061 C132.787105,38.7906295 131.741069,40.5786216 130.305788,42.135536 C128.870508,43.6924505 127.009536,44.9452613 124.722818,45.894006 C122.4361,46.8427507 119.662888,47.317116 116.403098,47.317116 L104.361399,47.317116 L104.361399,65.9999957 L92.9035387,65.9999957 L92.9035387,13.8922764 Z" id="TAP" fill="#FF2C5B"></path>
            <path d="M32.5664598,23.5256363 L16.94874,23.5256363 L16.94874,13.8922764 L59.6420394,13.8922764 L59.6420394,23.5256363 L44.0243196,23.5256363 L44.0243196,65.9999957 L32.5664598,65.9999957 L32.5664598,23.5256363 Z M72.0486392,45.857516 L85.5499391,45.857516 L78.9817391,26.7367562 L78.8357791,26.7367562 L72.0486392,45.857516 Z M73.1433392,13.8922764 L84.8931191,13.8922764 L104.378779,65.9999957 L92.483039,65.9999957 L88.542119,54.3961759 L69.0564593,54.3961759 L64.9695793,65.9999957 L53.4387395,65.9999957 L73.1433392,13.8922764 Z M120.361399,38.4135561 L129.264958,38.4135561 C130.578605,38.4135561 131.843579,38.3162504 133.059918,38.1216361 C134.276258,37.9270218 135.34662,37.5499622 136.271038,36.9904461 C137.195456,36.43093 137.937412,35.6403212 138.496928,34.6185961 C139.056444,33.596871 139.336198,32.2589178 139.336198,30.6046962 C139.336198,28.9504746 139.056444,27.6125213 138.496928,26.5907962 C137.937412,25.5690711 137.195456,24.7784624 136.271038,24.2189463 C135.34662,23.6594302 134.276258,23.2823706 133.059918,23.0877563 C131.843579,22.893142 130.578605,22.7958363 129.264958,22.7958363 L120.361399,22.7958363 L120.361399,38.4135561 Z M108.903539,13.8922764 L132.403098,13.8922764 C135.662888,13.8922764 138.4361,14.3666417 140.722818,15.3153864 C143.009536,16.2641311 144.870508,17.5169419 146.305788,19.0738563 C147.741069,20.6307708 148.787105,22.4065997 149.443928,24.4013963 C150.100751,26.3961929 150.429158,28.4639388 150.429158,30.6046962 C150.429158,32.6968 150.100751,34.7523827 149.443928,36.7715061 C148.787105,38.7906295 147.741069,40.5786216 146.305788,42.135536 C144.870508,43.6924505 143.009536,44.9452613 140.722818,45.894006 C138.4361,46.8427507 135.662888,47.317116 132.403098,47.317116 L120.361399,47.317116 L120.361399,65.9999957 L108.903539,65.9999957 L108.903539,13.8922764 Z" id="TAP-Copy" fill="#58D1FF"></path>
            <path d="M22.5664598,23.5256363 L6.94873999,23.5256363 L6.94873999,13.8922764 L49.6420394,13.8922764 L49.6420394,23.5256363 L34.0243196,23.5256363 L34.0243196,65.9999957 L22.5664598,65.9999957 L22.5664598,23.5256363 Z M62.0486392,45.857516 L75.5499391,45.857516 L68.9817391,26.7367562 L68.8357791,26.7367562 L62.0486392,45.857516 Z M63.1433392,13.8922764 L74.8931191,13.8922764 L94.3787788,65.9999957 L82.483039,65.9999957 L78.542119,54.3961759 L59.0564593,54.3961759 L54.9695793,65.9999957 L43.4387395,65.9999957 L63.1433392,13.8922764 Z M110.361399,38.4135561 L119.264958,38.4135561 C120.578605,38.4135561 121.843579,38.3162504 123.059918,38.1216361 C124.276258,37.9270218 125.34662,37.5499622 126.271038,36.9904461 C127.195456,36.43093 127.937412,35.6403212 128.496928,34.6185961 C129.056444,33.596871 129.336198,32.2589178 129.336198,30.6046962 C129.336198,28.9504746 129.056444,27.6125213 128.496928,26.5907962 C127.937412,25.5690711 127.195456,24.7784624 126.271038,24.2189463 C125.34662,23.6594302 124.276258,23.2823706 123.059918,23.0877563 C121.843579,22.893142 120.578605,22.7958363 119.264958,22.7958363 L110.361399,22.7958363 L110.361399,38.4135561 Z M98.9035387,13.8922764 L122.403098,13.8922764 C125.662888,13.8922764 128.4361,14.3666417 130.722818,15.3153864 C133.009536,16.2641311 134.870508,17.5169419 136.305788,19.0738563 C137.741069,20.6307708 138.787105,22.4065997 139.443928,24.4013963 C140.100751,26.3961929 140.429158,28.4639388 140.429158,30.6046962 C140.429158,32.6968 140.100751,34.7523827 139.443928,36.7715061 C138.787105,38.7906295 137.741069,40.5786216 136.305788,42.135536 C134.870508,43.6924505 133.009536,44.9452613 130.722818,45.894006 C128.4361,46.8427507 125.662888,47.317116 122.403098,47.317116 L110.361399,47.317116 L110.361399,65.9999957 L98.9035387,65.9999957 L98.9035387,13.8922764 Z" id="TAP-Copy-2" fill="#061D33"></path>
        </g>
    </g>
</svg>