<?xml version="1.0" encoding="UTF-8" standalone="no"?>
<svg width="40px" height="40px" viewBox="0 0 40 40" version="1.1" xmlns="http://www.w3.org/2000/svg" xmlns:xlink="http://www.w3.org/1999/xlink">
    <!-- Generator: Sketch 39.1 (31720) - http://www.bohemiancoding.com/sketch -->
    <title>Fill 1</title>
    <desc>Created with Sketch.</desc>
    <defs></defs>
    <g id="Page-4" stroke="none" stroke-width="1" fill="none" fill-rule="evenodd">
        <path d="M23.889,23.889 L23.889,23.889 C23.649,24.129 23.389,24.341 23.116,24.53 C22.2055,25.1585 21.1295,25.5 20,25.5 C18.87,25.5 17.794,25.1585 16.884,24.53 C16.6105,24.341 16.3505,24.129 16.1105,23.889 L16.1105,23.889 C15.869,23.647 15.6585,23.3865 15.4715,23.1145 C14.1845,21.245 14.1845,18.7545 15.4715,16.8855 C15.6585,16.613 15.869,16.3525 16.1105,16.1105 L16.1105,16.1105 C16.3505,15.8705 16.6105,15.6585 16.884,15.4695 C17.794,14.841 18.87,14.5 20,14.5 C21.1295,14.5 22.2055,14.841 23.116,15.47 C23.389,15.6585 23.649,15.8705 23.889,16.1105 L23.889,16.1105 C24.1305,16.3525 24.341,16.613 24.5285,16.8855 C25.815,18.7545 25.815,21.245 24.5285,23.1145 C24.341,23.3865 24.1305,23.647 23.889,23.889 L23.889,23.889 Z M40,0 L38.586,0 L24.544,14.042 C23.2435,13.046 21.6655,12.5 20,12.5 C18.3345,12.5 16.756,13.046 15.456,14.042 L1.414,0 L0,0 L0,1.414 L14.0425,15.4565 C12.0005,18.131 12.0005,21.8685 14.0425,24.5435 L0,38.586 L0,40 L1.414,40 L15.456,25.958 C16.756,26.9535 18.3345,27.5 20,27.5 C21.6655,27.5 23.2435,26.9535 24.544,25.958 L38.586,40 L40,40 L40,38.5855 L25.9575,24.543 C27.999,21.8685 27.999,18.1315 25.9575,15.4565 L40,1.414 L40,0 Z" id="Fill-1" fill="#00689D"></path>
    </g>
</svg>