<?xml version="1.0" encoding="UTF-8" standalone="no"?>
<svg width="48px" height="48px" viewBox="0 0 48 48" version="1.1" xmlns="http://www.w3.org/2000/svg" xmlns:xlink="http://www.w3.org/1999/xlink">
    <!-- Generator: Sketch 39.1 (31720) - http://www.bohemiancoding.com/sketch -->
    <title>flagIcon</title>
    <desc>Created with Sketch.</desc>
    <defs></defs>
    <g id="Assets" stroke="none" stroke-width="1" fill="none" fill-rule="evenodd">
        <g id="Artboard" transform="translate(-35.000000, -159.000000)" fill="#FFFFFF">
            <g id="flagIcon" transform="translate(35.000000, 159.000000)">
                <path d="M37.507,33.002 C35.187,33.002 32.374,32.423 29,30.879 C23.172,28.213 17.754,27.404 13.325,27.404 C9.841,27.404 6.98,27.904 5,28.395 L5,46.496 C5,47.325 4.329,47.998 3.5,47.998 C2.671,47.998 2,47.325 2,46.496 L2,8.997 L2,4.496 L2,2.998 L2.176,2.998 C3.029,2.555 8.119,0.074 15.41,0.074 C19.41,0.074 24.057,0.827 29,3.09 C32.374,4.632 35.187,5.212 37.507,5.212 C44.469,5.212 47,0 47,0 L47,27.791 C47,27.791 44.468,33.002 37.507,33.002 L37.507,33.002 Z M44,6.719 C42.289,7.579 40.145,8.193 37.507,8.193 C34.519,8.193 31.246,7.383 27.781,5.789 C23.795,3.951 19.633,3.018 15.411,3.018 C10.718,3.018 6.989,4.185 5,4.974 L5,25.24 C7.125,24.757 9.971,24.324 13.325,24.324 C19.109,24.324 24.792,25.591 30.218,28.088 C32.912,29.331 35.364,29.959 37.508,29.959 C41.311,29.959 43.272,27.909 44,26.913 L44,6.719 L44,6.719 Z"></path>
            </g>
        </g>
    </g>
</svg>