<svg xmlns="http://www.w3.org/2000/svg" width="24" height="24" viewBox="0 0 24 24">
  <path fill="#39D5FF" fill-rule="evenodd" d="M23.7847881,9.37751726 L13.3350412,22.5042519 L13.3686191,22.5900442 L13.2277923,22.638047 L12.3447433,23.7461977 C12.2234619,23.915229 12.0640921,24 11.9052235,24 C11.7448514,24 11.5839781,23.913697 11.463699,23.7416017 L0.208583332,9.25546748 C-0.0314736815,8.91331957 -0.0705643852,8.32911477 0.123886808,7.95734808 L3.39397452,1.67867848 C3.58842571,1.30640112 4.08407579,1.00204267 4.49703399,1.00204267 L11.9207596,1.00204267 C11.9237665,1.00204267 11.9267735,1 11.9302817,1 C11.9337898,1 11.9367968,1.00204267 11.9408061,1.00204267 L19.5028526,1.00204267 C19.9148085,1.00204267 20.4099574,1.30793312 20.6009004,1.68123182 L23.8800091,8.08297253 C24.0719545,8.45576056 24.0288544,9.03894403 23.7847881,9.37751726 L23.7847881,9.37751726 Z M11.8941979,18.8396945 L15.8604009,8.66053864 L7.89241242,8.66053864 L11.8941979,18.8396945 L11.8941979,18.8396945 Z M15.3071171,7.12904372 L11.9377991,2.54221897 L8.56848113,7.12904372 L15.3071171,7.12904372 L15.3071171,7.12904372 Z M10.9625362,20.541242 L6.35835289,8.67024135 L5.93537142,8.67024135 L5.9423877,8.66053864 L1.64992774,8.66053864 L10.9625362,20.541242 L10.9625362,20.541242 Z M4.26499559,3.27145363 L2.25533249,7.12904372 L5.76046558,7.12904372 L4.26499559,3.27145363 L4.26499559,3.27145363 Z M7.21333674,6.93345767 L10.4483431,2.53404827 L5.48382368,2.53404827 L7.21333674,6.93345767 L7.21333674,6.93345767 Z M13.4498075,2.53404827 L16.5810731,6.81242923 L18.2479408,2.53404827 L13.4498075,2.53404827 L13.4498075,2.53404827 Z M19.6391689,3.10650769 L18.0720326,7.12904372 L21.6989483,7.12904372 L19.6391689,3.10650769 L19.6391689,3.10650769 Z M17.9332105,8.66053864 L17.9402268,8.67024135 L17.4711383,8.67024135 L12.802305,20.6530784 L22.43666,8.66053864 L17.9332105,8.66053864 L17.9332105,8.66053864 Z"/>
</svg>
