<svg xmlns="http://www.w3.org/2000/svg" width="48" height="48" viewBox="0 0 48 48">
  <path fill="#FFFFFF" fill-rule="evenodd" d="M34.5,45.001 L31.5,45.001 C29.015,45.001 27,42.986 27,40.5 L27,7.5 C27,5.015 29.015,3 31.5,3 L34.5,3 C36.984,3 39,5.015 39,7.5 L39,40.5 C39,42.986 36.984,45.001 34.5,45.001 Z M36,7.499 C36,6.671 35.328,5.999 34.5,5.999 L31.5,5.999 C30.671,5.999 30,6.67 30,7.499 L30,40.499 C30,41.329 30.671,42 31.5,42 L34.5,42 C35.328,42 36,41.328 36,40.499 L36,7.499 Z M16.5,45.001 L13.5,45.001 C11.015,45.001 9,42.986 9,40.5 L9,7.5 C9,5.015 11.015,3 13.5,3 L16.5,3 C18.984,3 21,5.015 21,7.5 L21,40.5 C21,42.986 18.984,45.001 16.5,45.001 Z M18,7.499 C18,6.671 17.328,5.999 16.5,5.999 L13.5,5.999 C12.671,5.999 12,6.67 12,7.499 L12,40.499 C12,41.329 12.671,42 13.5,42 L16.5,42 C17.328,42 18,41.328 18,40.499 L18,7.499 Z"/>
</svg>
